<svg width="40" height="40" viewBox="0 0 40 40" fill="none" xmlns="http://www.w3.org/2000/svg">
<path fill-rule="evenodd" clip-rule="evenodd" d="M11.6635 8.32843H14.9982C15.919 8.32843 16.6655 9.07493 16.6655 9.99579V13.3305H9.99609V9.99579C9.99609 9.07493 10.7426 8.32843 11.6635 8.32843Z" stroke="#273246" stroke-width="1.5" stroke-linecap="round" stroke-linejoin="round"/>
<path d="M13.3308 4.99371V8.32844" stroke="#273246" stroke-width="1.5" stroke-linecap="round" stroke-linejoin="round"/>
<path d="M20 25.002V14.9979C20 14.077 19.2535 13.3305 18.3327 13.3305H8.32849C7.40764 13.3305 6.66113 14.077 6.66113 14.9979V35.0062" stroke="#273246" stroke-width="1.5" stroke-linecap="round" stroke-linejoin="round"/>
<path d="M30.8264 30.0042V35.0062" stroke="#273246" stroke-width="1.5" stroke-linecap="round" stroke-linejoin="round"/>
<rect x="26.6694" y="18.3326" width="8.33681" height="11.6715" rx="2.5" stroke="#273246" stroke-width="1.5" stroke-linecap="round" stroke-linejoin="round"/>
<path d="M13.3306 30.0042H23.3347" stroke="#273246" stroke-width="1.5" stroke-linecap="round" stroke-linejoin="round"/>
<path d="M15.1398 35.0062V30.0042" stroke="#273246" stroke-width="1.5" stroke-linecap="round" stroke-linejoin="round"/>
<path d="M21.6672 35.0062V30.0042" stroke="#273246" stroke-width="1.5" stroke-linecap="round" stroke-linejoin="round"/>
<ellipse cx="28.3367" cy="8.32844" rx="3.33472" ry="3.33472" stroke="#273246" stroke-width="1.5" stroke-linecap="round" stroke-linejoin="round"/>
<path d="M10.8296 23.3347H15.8317" stroke="#273246" stroke-width="1.5" stroke-linecap="round" stroke-linejoin="round"/>
<path d="M10.8296 18.3326H15.8317" stroke="#273246" stroke-width="1.5" stroke-linecap="round" stroke-linejoin="round"/>
<path d="M36.6739 35.0062H3.32666" stroke="#273246" stroke-width="1.5" stroke-linecap="round" stroke-linejoin="round"/>
</svg>
