<svg width="40" height="40" viewBox="0 0 40 40" fill="none" xmlns="http://www.w3.org/2000/svg">
<path d="M14.9998 30V35" stroke="#273246" stroke-width="1.5" stroke-linecap="round" stroke-linejoin="round"/>
<path fill-rule="evenodd" clip-rule="evenodd" d="M13.8207 13.8203L8.82407 18.8221C8.34773 19.2989 8.20543 20.0156 8.46351 20.6382C8.72158 21.2608 9.32923 21.6667 10.0032 21.6667H19.9965C20.6705 21.6667 21.2782 21.2608 21.5362 20.6382C21.7943 20.0156 21.652 19.2989 21.1757 18.8221L16.179 13.8203C15.5269 13.1711 14.4728 13.1711 13.8207 13.8203V13.8203Z" stroke="#273246" stroke-width="1.5" stroke-linecap="round" stroke-linejoin="round"/>
<path d="M18.2502 21.6667L22.9408 27.2627C23.3568 27.759 23.4477 28.4513 23.1739 29.0381C22.9001 29.6249 22.3111 30 21.6635 30H8.33661C7.68905 30 7.1001 29.6249 6.82628 29.0381C6.55246 28.4513 6.64333 27.759 7.05931 27.2627L11.75 21.6667" stroke="#273246" stroke-width="1.5" stroke-linecap="round" stroke-linejoin="round"/>
<path d="M5 35H35" stroke="#273246" stroke-width="1.5" stroke-linecap="round" stroke-linejoin="round"/>
<path d="M28.3333 28.3333V35" stroke="#273246" stroke-width="1.5" stroke-linecap="round" stroke-linejoin="round"/>
<path d="M33.4992 17.5C35.1271 19.4878 35.4603 22.237 34.3545 24.5561C33.2486 26.8752 30.9027 28.3469 28.3335 28.3333" stroke="#273246" stroke-width="1.5" stroke-linecap="round" stroke-linejoin="round"/>
<circle cx="7.5" cy="7.5" r="2.5" stroke="#273246" stroke-width="1.5" stroke-linecap="round" stroke-linejoin="round"/>
<path d="M33.4989 17.5C35.3364 15.2232 35.4712 12.0132 33.8309 9.59039C32.1906 7.16758 29.1602 6.10045 26.3638 6.96091C23.5673 7.82136 21.661 10.4075 21.6665 13.3333" stroke="#273246" stroke-width="1.5" stroke-linecap="round" stroke-linejoin="round"/>
</svg>
