<svg width="32" height="32" viewBox="0 0 32 32" fill="none" xmlns="http://www.w3.org/2000/svg">
<path d="M26.6711 14.0605V28.005" stroke="#273246" stroke-width="1.5" stroke-linecap="round" stroke-linejoin="round"/>
<path d="M29.3389 16.0002L16.8337 6.90976C16.3669 6.57175 15.7358 6.57175 15.269 6.90976L2.66113 16.0002" stroke="#273246" stroke-width="1.5" stroke-linecap="round" stroke-linejoin="round"/>
<path d="M26.0043 12.9896V5.99605C26.0043 5.6277 25.7057 5.3291 25.3373 5.3291H21.3356C20.9673 5.3291 20.6687 5.6277 20.6687 5.99605V9.47616" stroke="#273246" stroke-width="1.5" stroke-linecap="round" stroke-linejoin="round"/>
<path d="M29.3389 28.0048H2.66113" stroke="#273246" stroke-width="1.5" stroke-linecap="round" stroke-linejoin="round"/>
<path d="M5.32905 14.0762V28.0046" stroke="#273246" stroke-width="1.5" stroke-linecap="round" stroke-linejoin="round"/>
<rect x="18.001" y="20.002" width="5.33555" height="4.00167" rx="0.5" stroke="#273246" stroke-width="1.5" stroke-linecap="round" stroke-linejoin="round"/>
<path d="M9.33057 28.0053V20.6689C9.33057 20.3006 9.62917 20.002 9.99751 20.002H13.3322C13.7006 20.002 13.9992 20.3006 13.9992 20.6689V28.0053" stroke="#273246" stroke-width="1.5" stroke-linecap="round" stroke-linejoin="round"/>
</svg>
