<svg width="48" height="48" viewBox="0 0 48 48" fill="none" xmlns="http://www.w3.org/2000/svg">
<path d="M18 16C18 10.478 22.478 6 28 6C33.522 6 38 10.478 38 16V42" stroke="#273246" stroke-width="2" stroke-linecap="square"/>
<path fill-rule="evenodd" clip-rule="evenodd" d="M22.8321 25.496H13.1681C11.0081 25.496 9.48214 23.38 10.1661 21.33C11.2261 18.146 14.2041 16 17.5601 16H18.4401C21.7941 16 24.7741 18.146 25.8341 21.33C26.5181 23.38 24.9921 25.496 22.8321 25.496Z" stroke="#273246" stroke-width="2" stroke-linecap="square"/>
<path d="M18 40V42" stroke="#273246" stroke-width="2" stroke-linecap="square"/>
<path d="M18 34V32" stroke="#273246" stroke-width="2" stroke-linecap="square"/>
<path d="M30.0002 39.3L28.9002 37.64" stroke="#273246" stroke-width="2" stroke-linecap="square"/>
<path d="M24.4803 31L25.5803 32.66" stroke="#273246" stroke-width="2" stroke-linecap="square"/>
<path d="M11.5197 31L10.4197 32.66" stroke="#273246" stroke-width="2" stroke-linecap="square"/>
<path d="M7.0998 37.64L5.9998 39.3" stroke="#273246" stroke-width="2" stroke-linecap="square"/>
</svg>
