<svg width="32" height="32" viewBox="0 0 32 32" fill="none" xmlns="http://www.w3.org/2000/svg">
<path fill-rule="evenodd" clip-rule="evenodd" d="M26.6667 17.3612C26.6667 22.3941 20.4735 26.1329 17.5202 27.634C16.5673 28.1212 15.4386 28.1222 14.4849 27.6367C11.5335 26.137 5.33333 22.389 5.33333 17.3612V10.0925C5.34313 9.41136 5.85897 8.8443 6.53613 8.77024C9.36535 8.55525 12.0778 7.55214 14.3661 5.87456C15.3358 5.1529 16.6641 5.1529 17.6338 5.87456C19.9221 7.55214 22.6346 8.55525 25.4638 8.77024C26.141 8.84427 26.6569 9.41134 26.6667 10.0925V17.3612Z" stroke="#175CD3" stroke-width="2" stroke-linecap="round" stroke-linejoin="round"/>
<path d="M18.1333 15.3333L15.4681 18L13.8667 16.4" stroke="#175CD3" stroke-width="2" stroke-linecap="round" stroke-linejoin="round"/>
</svg>
