<svg width="80" height="80" viewBox="0 0 80 80" fill="none" xmlns="http://www.w3.org/2000/svg">
<g clip-path="url(#clip0_149_377)">
<path d="M0 40C0 17.9086 17.9086 0 40 0C62.0914 0 80 17.9086 80 40C80 62.0914 62.0914 80 40 80C17.9086 80 0 62.0914 0 40Z" fill="white"/>
<path d="M39.9993 48.4663V55.0002" stroke="#175CD3" stroke-width="2" stroke-linecap="round" stroke-linejoin="round"/>
<path d="M25 54.9998V52.5473C25 50.1639 26.6823 48.1119 29.0194 47.6444L33.7627 46.6958C34.1548 46.6174 34.5619 46.6979 34.8946 46.9197C37.9862 48.9808 42.0139 48.9808 45.1055 46.9197C45.4382 46.6979 45.8453 46.6174 46.2374 46.6958L50.9807 47.6444C53.3178 48.1119 55 50.164 55 52.5473V54.9998" stroke="#175CD3" stroke-width="2" stroke-linecap="round" stroke-linejoin="round"/>
<path d="M46.6673 32.3306V36.6667C46.6673 40.3486 43.6825 43.3333 40.0007 43.3333C36.3188 43.3333 33.334 40.3486 33.334 36.6667V32.3306" stroke="#175CD3" stroke-width="2" stroke-linecap="round" stroke-linejoin="round"/>
<path d="M43.5014 42.3423L44.7082 47.1698" stroke="#175CD3" stroke-width="2" stroke-linecap="round" stroke-linejoin="round"/>
<path d="M36.5012 42.3423L35.2944 47.1696" stroke="#175CD3" stroke-width="2" stroke-linecap="round" stroke-linejoin="round"/>
<path fill-rule="evenodd" clip-rule="evenodd" d="M30.1608 30.7605L37.585 34.4358C39.1066 35.1883 40.8921 35.1883 42.4137 34.4358L49.8379 30.7605C50.4467 30.4628 50.8327 29.8444 50.8327 29.1668C50.8327 28.4892 50.4467 27.8708 49.8379 27.5732L42.4137 23.8978C40.8921 23.1454 39.1066 23.1454 37.585 23.8978L30.1608 27.5732C29.552 27.8708 29.166 28.4892 29.166 29.1668C29.166 29.8444 29.552 30.4628 30.1608 30.7605Z" stroke="#175CD3" stroke-width="2" stroke-linecap="round" stroke-linejoin="round"/>
<path d="M50.8333 29.2241V33.5575" stroke="#175CD3" stroke-width="2" stroke-linecap="round" stroke-linejoin="round"/>
</g>
<defs>
<clipPath id="clip0_149_377">
<rect width="80" height="80" fill="white"/>
</clipPath>
</defs>
</svg>
