<svg width="40" height="40" viewBox="0 0 40 40" fill="none" xmlns="http://www.w3.org/2000/svg">
<path d="M2.99951 14.5757L13.0037 6.00043L23.0078 14.5757" stroke="#273246" stroke-width="1.5" stroke-linecap="round" stroke-linejoin="round"/>
<path d="M21.579 26.0088V6.00043H17.2905V9.66862" stroke="#273246" stroke-width="1.5" stroke-linecap="round" stroke-linejoin="round"/>
<path d="M10.5034 26.009V18.8627H15.5055V26.009" stroke="#273246" stroke-width="1.5" stroke-linecap="round" stroke-linejoin="round"/>
<path d="M4.4289 13.351V26.0096" stroke="#273246" stroke-width="1.5" stroke-linecap="round" stroke-linejoin="round"/>
<path d="M36.3467 26.0089H2.99951" stroke="#273246" stroke-width="1.5" stroke-linecap="round" stroke-linejoin="round"/>
<path d="M36.3467 30.0089H2.99951" stroke="#273246" stroke-width="1.5" stroke-linecap="round" stroke-linejoin="round"/>
<path d="M36.3467 33.8341H2.99951" stroke="#273246" stroke-width="1.5" stroke-linecap="round" stroke-linejoin="round"/>
<path d="M26.9995 16.0004L26.9995 26.0004" stroke="#273246" stroke-width="1.5" stroke-linecap="round" stroke-linejoin="round"/>
<path d="M28.9995 18.0034L26.9995 20.0034" stroke="#273246" stroke-width="1.5" stroke-linecap="round" stroke-linejoin="round"/>
<path d="M28.9995 22.0004L26.9995 24.0004" stroke="#273246" stroke-width="1.5" stroke-linecap="round" stroke-linejoin="round"/>
<path d="M24.9995 18.0034L26.9995 20.0034" stroke="#273246" stroke-width="1.5" stroke-linecap="round" stroke-linejoin="round"/>
<path d="M24.9995 22.0004L26.9995 24.0004" stroke="#273246" stroke-width="1.5" stroke-linecap="round" stroke-linejoin="round"/>
<path d="M33.9995 16.0004L33.9995 26.0004" stroke="#273246" stroke-width="1.5" stroke-linecap="round" stroke-linejoin="round"/>
<path d="M35.9995 18.0034L33.9995 20.0034" stroke="#273246" stroke-width="1.5" stroke-linecap="round" stroke-linejoin="round"/>
<path d="M35.9995 22.0004L33.9995 24.0004" stroke="#273246" stroke-width="1.5" stroke-linecap="round" stroke-linejoin="round"/>
<path d="M31.9995 18.0034L33.9995 20.0034" stroke="#273246" stroke-width="1.5" stroke-linecap="round" stroke-linejoin="round"/>
<path d="M31.9995 22.0004L33.9995 24.0004" stroke="#273246" stroke-width="1.5" stroke-linecap="round" stroke-linejoin="round"/>
</svg>
