<svg width="40" height="40" viewBox="0 0 40 40" fill="none" xmlns="http://www.w3.org/2000/svg">
<path d="M19.9998 8.33333V5" stroke="#273246" stroke-width="1.5" stroke-linecap="round" stroke-linejoin="round"/>
<path d="M3.33325 21.6668H6.66659" stroke="#273246" stroke-width="1.5" stroke-linecap="round" stroke-linejoin="round"/>
<path d="M8.1665 9.8335L9.99984 11.6668" stroke="#273246" stroke-width="1.5" stroke-linecap="round" stroke-linejoin="round"/>
<path d="M31.8333 9.8335L30 11.6668" stroke="#273246" stroke-width="1.5" stroke-linecap="round" stroke-linejoin="round"/>
<path d="M36.6666 21.4998H33.3333" stroke="#273246" stroke-width="1.5" stroke-linecap="round" stroke-linejoin="round"/>
<path d="M5 29C6.83333 28.1667 9.16667 28.1667 11 29C12.8333 29.8333 15.1667 29.8333 17 29C18.8333 28.1667 21.1667 28.1667 23 29C24.8333 29.8333 27.1667 29.8333 29 29C30.8333 28.1667 33.1667 28.1667 35 29" stroke="#273246" stroke-width="1.5" stroke-linecap="round" stroke-linejoin="round"/>
<path d="M11 34.3335C12.8333 35.1668 15.1667 35.1668 17 34.3335C18.8333 33.5002 21.1667 33.5002 23 34.3335C24.8333 35.1668 27.1667 35.1668 29 34.3335" stroke="#273246" stroke-width="1.5" stroke-linecap="round" stroke-linejoin="round"/>
<path d="M11.6665 21.6668C11.6665 17.0002 15.3332 13.3335 19.9998 13.3335C24.6665 13.3335 28.3332 17.0002 28.3332 21.6668" stroke="#273246" stroke-width="1.5" stroke-linecap="round" stroke-linejoin="round"/>
</svg>
