<svg width="40" height="40" viewBox="0 0 40 40" fill="none" xmlns="http://www.w3.org/2000/svg">
<path d="M20.3029 19.1826L16.0518 29.211" stroke="#273246" stroke-width="1.5" stroke-linecap="round" stroke-linejoin="round"/>
<path fill-rule="evenodd" clip-rule="evenodd" d="M25.9033 5.97163V5.97163C31.5635 8.37384 34.5486 14.6155 32.8658 20.5296L32.7564 20.9161C32.5283 21.7191 31.9662 22.3855 31.2131 22.7457C30.46 23.1059 29.5885 23.1253 28.8201 22.7989L11.7741 15.5622C11.0055 15.2361 10.4139 14.5955 10.15 13.8033C9.88601 13.0111 9.97505 12.1438 10.3944 11.4217L10.5957 11.0732C13.682 5.75624 20.2443 3.56921 25.9033 5.97163Z" stroke="#273246" stroke-width="1.5" stroke-linecap="round" stroke-linejoin="round"/>
<path d="M25.9034 5.97119L26.2812 7.49816C27.4031 12.0407 26.4179 16.8469 23.5991 20.5817V20.5817" stroke="#273246" stroke-width="1.5" stroke-linecap="round" stroke-linejoin="round"/>
<path d="M25.9034 5.97119L24.5427 6.76019C20.4957 9.10897 17.7227 13.1565 16.9939 17.7785V17.7785" stroke="#273246" stroke-width="1.5" stroke-linecap="round" stroke-linejoin="round"/>
<path d="M5 33.3334C7.65677 30.6766 11.2601 29.1841 15.0173 29.1841C18.7746 29.1841 22.3779 30.6766 25.0347 33.3334" stroke="#273246" stroke-width="1.5" stroke-linecap="round" stroke-linejoin="round"/>
</svg>
