<svg width="40" height="40" viewBox="0 0 40 40" fill="none" xmlns="http://www.w3.org/2000/svg">
<path d="M3.3335 35C5.41683 33.8889 7.91683 33.8889 10.0002 35C12.0835 36.1111 14.5835 36.1111 16.6668 35C18.7502 33.8889 21.2502 33.8889 23.3335 35C25.4168 36.1111 27.9168 36.1111 30.0002 35C32.0835 33.8889 34.5835 33.8889 36.6668 35" stroke="#273246" stroke-width="1.5" stroke-linecap="round" stroke-linejoin="round"/>
<path d="M3.3335 23.3333H36.6668" stroke="#273246" stroke-width="1.5" stroke-linecap="round" stroke-linejoin="round"/>
<path d="M8.33333 13.3333V23.3333" stroke="#273246" stroke-width="1.5" stroke-linecap="round" stroke-linejoin="round"/>
<path d="M3.3335 29.1666C5.41683 28.0555 7.91683 28.0555 10.0002 29.1666C12.0835 30.2778 14.5835 30.2778 16.6668 29.1666C18.7502 28.0555 21.2502 28.0555 23.3335 29.1666C25.4168 30.2778 27.9168 30.2778 30.0002 29.1666C32.0835 28.0555 34.5835 28.0555 36.6668 29.1666" stroke="#273246" stroke-width="1.5" stroke-linecap="round" stroke-linejoin="round"/>
<ellipse cx="8.3335" cy="11.6666" rx="5" ry="6.66667" stroke="#273246" stroke-width="1.5" stroke-linecap="round" stroke-linejoin="round"/>
<path d="M19.6196 18.3694C19.7957 15.6884 21.9175 13.5455 24.5967 13.3431C27.2758 13.1406 29.6956 14.9403 30.2725 17.5644" stroke="#273246" stroke-width="1.5" stroke-linecap="round" stroke-linejoin="round"/>
<path d="M19.6198 18.3694C18.4392 18.4669 17.3572 19.0667 16.649 20.0163C15.9407 20.9659 15.6744 22.1739 15.9176 23.3333" stroke="#273246" stroke-width="1.5" stroke-linecap="round" stroke-linejoin="round"/>
<path d="M30.2725 17.5645C31.5774 17.7479 32.7379 18.4902 33.4515 19.598C34.1651 20.7058 34.3611 22.0694 33.9885 23.3333" stroke="#273246" stroke-width="1.5" stroke-linecap="round" stroke-linejoin="round"/>
</svg>
