<svg width="40" height="40" viewBox="0 0 40 40" fill="none" xmlns="http://www.w3.org/2000/svg">
<path d="M35.0062 35.0062V8.32843C35.0062 7.40757 34.2596 6.66107 33.3388 6.66107H6.66101C5.74016 6.66107 4.99365 7.40757 4.99365 8.32843V35.0062" stroke="#273246" stroke-width="1.5" stroke-linecap="round" stroke-linejoin="round"/>
<path d="M22.5011 35.0062V30.0042H17.499V35.0062" stroke="#273246" stroke-width="1.5" stroke-linecap="round" stroke-linejoin="round"/>
<path d="M16.6655 30.0042H23.335" stroke="#273246" stroke-width="1.5" stroke-linecap="round" stroke-linejoin="round"/>
<path d="M3.32666 35.0062H36.6739" stroke="#273246" stroke-width="1.5" stroke-linecap="round" stroke-linejoin="round"/>
<path d="M20 18.1242C19.9449 18.1242 19.892 18.1462 19.8532 18.1853C19.8144 18.2244 19.7928 18.2775 19.7932 18.3326C19.7932 18.4477 19.8865 18.541 20.0016 18.541C20.1168 18.541 20.2101 18.4477 20.2101 18.3326C20.2083 18.2176 20.115 18.1251 20 18.1242" stroke="#273246" stroke-width="1.5" stroke-linecap="round" stroke-linejoin="round"/>
<path d="M16.6655 23.3347H23.335" stroke="#273246" stroke-width="1.5" stroke-linecap="round" stroke-linejoin="round"/>
<path d="M35.0062 16.6653H28.21L20.7302 12.1784C20.2022 11.8616 19.5425 11.8616 19.0145 12.1784L11.5364 16.6653H4.99365" stroke="#273246" stroke-width="1.5" stroke-linecap="round" stroke-linejoin="round"/>
<path d="M11.5363 16.6652V35.0062" stroke="#273246" stroke-width="1.5" stroke-linecap="round" stroke-linejoin="round"/>
<path d="M28.2101 35.0062V16.6652" stroke="#273246" stroke-width="1.5" stroke-linecap="round" stroke-linejoin="round"/>
</svg>
