<svg width="112" height="112" viewBox="0 0 112 112" fill="none" xmlns="http://www.w3.org/2000/svg">
<g clip-path="url(#clip0_20_11)">
<path d="M112 56C112 25.0721 86.9279 0 56 0C25.0721 0 0 25.0721 0 56C0 86.9279 25.0721 112 56 112C86.9279 112 112 86.9279 112 56Z" fill="#175CD3" fill-opacity="0.08"/>
<path d="M32.002 45C32.002 47.9467 37.97 50.3333 45.3353 50.3333" stroke="#175CD3" stroke-width="3" stroke-linecap="round"/>
<path d="M45.3326 61.0003C37.97 61.0003 32.002 58.6137 32.002 55.667" stroke="#175CD3" stroke-width="3" stroke-linecap="round"/>
<path d="M58.664 34.333H58.6667V42.333" stroke="#175CD3" stroke-width="3" stroke-linecap="round"/>
<path d="M53.3359 63.667C53.3359 66.6137 59.3039 69.0003 66.6693 69.0003C74.0346 69.0003 80.0026 66.6137 80.0026 63.667" stroke="#175CD3" stroke-width="3" stroke-linecap="round"/>
<path d="M53.3359 53C53.3359 55.9467 59.3039 58.3333 66.6693 58.3333C74.0346 58.3333 80.0026 55.9467 80.0026 53" stroke="#175CD3" stroke-width="3" stroke-linecap="round"/>
<path d="M66.6659 47.667C59.3059 47.667 53.3326 50.0537 53.3379 53.0003" stroke="#175CD3" stroke-width="3" stroke-linecap="round"/>
<path d="M53.3359 53V74.3333C53.3359 77.28 59.3039 79.6667 66.6693 79.6667" stroke="#175CD3" stroke-width="3" stroke-linecap="round"/>
<path d="M66.666 47.667C74.026 47.667 79.9993 50.0537 79.994 53.0003" stroke="#175CD3" stroke-width="3" stroke-linecap="round"/>
<path d="M79.9993 53V74.3333C79.9993 77.28 74.0313 79.6667 66.666 79.6667" stroke="#175CD3" stroke-width="3" stroke-linecap="round"/>
<path d="M45.3333 71.6663C37.9707 71.6663 32 69.2797 32 66.333" stroke="#175CD3" stroke-width="3" stroke-linecap="round"/>
<path fill-rule="evenodd" clip-rule="evenodd" d="M45.3333 39.6667C52.6971 39.6667 58.6667 37.2789 58.6667 34.3333C58.6667 31.3878 52.6971 29 45.3333 29C37.9695 29 32 31.3878 32 34.3333C32 37.2789 37.9695 39.6667 45.3333 39.6667Z" stroke="#175CD3" stroke-width="3" stroke-linecap="round"/>
<path d="M31.9993 34.333V66.333" stroke="#175CD3" stroke-width="3" stroke-linecap="round"/>
</g>
<defs>
<clipPath id="clip0_20_11">
<rect width="112" height="112" fill="white"/>
</clipPath>
</defs>
</svg>
