<svg width="80" height="80" viewBox="0 0 80 80" fill="none" xmlns="http://www.w3.org/2000/svg">
<g clip-path="url(#clip0_144_200)">
<path d="M0 40C0 17.9086 17.9086 0 40 0C62.0914 0 80 17.9086 80 40C80 62.0914 62.0914 80 40 80C17.9086 80 0 62.0914 0 40Z" fill="white"/>
<path d="M40.0004 55.0063C48.2881 55.0063 55.0066 48.2878 55.0066 40.0001C55.0066 31.7124 48.2881 24.9939 40.0004 24.9939C31.7127 24.9939 24.9942 31.7124 24.9942 40.0001C24.9942 48.2878 31.7127 55.0063 40.0004 55.0063Z" stroke="#175CD3" stroke-width="2" stroke-linecap="round" stroke-linejoin="round"/>
<path fill-rule="evenodd" clip-rule="evenodd" d="M40.0001 39.3748C42.7627 39.3748 45.0022 41.6143 45.0022 44.3768C45.0022 45.2977 44.2557 46.0442 43.3349 46.0442H36.6654C35.7445 46.0442 34.998 45.2977 34.998 44.3768C34.998 41.6143 37.2376 39.3748 40.0001 39.3748Z" stroke="#175CD3" stroke-width="2" stroke-linecap="round" stroke-linejoin="round"/>
<path d="M34.998 35.6231C34.768 35.6241 34.5822 35.8111 34.5829 36.0411C34.5835 36.2711 34.7703 36.4571 35.0002 36.4568C35.2302 36.4565 35.4165 36.27 35.4165 36.04C35.417 35.929 35.373 35.8225 35.2943 35.7441C35.2157 35.6658 35.109 35.6223 34.998 35.6231Z" stroke="#175CD3" stroke-width="2" stroke-linecap="round" stroke-linejoin="round"/>
<path d="M45.0019 35.6231C44.7719 35.6241 44.5861 35.8111 44.5868 36.0411C44.5874 36.2711 44.7742 36.4571 45.0042 36.4568C45.2342 36.4565 45.4204 36.27 45.4204 36.04C45.4209 35.929 45.3769 35.8225 45.2983 35.7441C45.2196 35.6658 45.1129 35.6223 45.0019 35.6231Z" stroke="#175CD3" stroke-width="2" stroke-linecap="round" stroke-linejoin="round"/>
<path d="M40 33.9559C39.77 33.9568 39.5842 34.1439 39.5848 34.3739C39.5854 34.6039 39.7722 34.7899 40.0022 34.7896C40.2322 34.7893 40.4185 34.6027 40.4185 34.3727C40.4189 34.2618 40.3749 34.1552 40.2963 34.0769C40.2177 33.9986 40.111 33.955 40 33.9559Z" stroke="#175CD3" stroke-width="2" stroke-linecap="round" stroke-linejoin="round"/>
</g>
<defs>
<clipPath id="clip0_144_200">
<rect width="80" height="80" fill="white"/>
</clipPath>
</defs>
</svg>
