<svg width="40" height="40" viewBox="0 0 40 40" fill="none" xmlns="http://www.w3.org/2000/svg">
<path d="M5 27.6967C6.91 26.8483 9.09 26.8483 11 27.6967C12.91 28.545 15.09 28.545 17 27.6967C18.91 26.8483 21.09 26.8483 23 27.6967C24.91 28.545 27.09 28.545 29 27.6967C30.91 26.8483 33.09 26.8483 35 27.6967" stroke="#273246" stroke-width="1.5" stroke-linecap="round" stroke-linejoin="round"/>
<path d="M13.3335 13.3333H26.6668" stroke="#273246" stroke-width="1.5" stroke-linecap="round" stroke-linejoin="round"/>
<path d="M13.3335 20H26.6668" stroke="#273246" stroke-width="1.5" stroke-linecap="round" stroke-linejoin="round"/>
<path d="M26.6665 23.3333V7.5C26.6665 6.12 27.7865 5 29.1665 5V5C30.5465 5 31.6665 6.12 31.6665 7.5" stroke="#273246" stroke-width="1.5" stroke-linecap="round" stroke-linejoin="round"/>
<path d="M13.3335 23.3333V7.5C13.3335 6.12 14.4535 5 15.8335 5V5C17.2135 5 18.3335 6.12 18.3335 7.5" stroke="#273246" stroke-width="1.5" stroke-linecap="round" stroke-linejoin="round"/>
<path d="M5 34.3633C6.91 33.515 9.09 33.515 11 34.3633C12.91 35.2116 15.09 35.2116 17 34.3633C18.91 33.515 21.09 33.515 23 34.3633C24.91 35.2116 27.09 35.2116 29 34.3633C30.91 33.515 33.09 33.515 35 34.3633" stroke="#273246" stroke-width="1.5" stroke-linecap="round" stroke-linejoin="round"/>
</svg>
