<svg width="50" height="50" viewBox="0 0 50 50" fill="none" xmlns="http://www.w3.org/2000/svg">
<path d="M26.2344 29.3018L29.2756 32.343" stroke="#273246" stroke-width="2" stroke-linecap="square"/>
<path d="M31.3027 24.2336L34.344 27.2749" stroke="#273246" stroke-width="2" stroke-linecap="square"/>
<path d="M36.373 19.1636L39.4143 22.2048" stroke="#273246" stroke-width="2" stroke-linecap="square"/>
<path d="M21.165 34.3719L24.2063 37.4132" stroke="#273246" stroke-width="2" stroke-linecap="square"/>
<path fill-rule="evenodd" clip-rule="evenodd" d="M29.5838 16.8266L18.8273 27.5831C15.857 24.6128 15.857 19.7969 18.8273 16.8266C21.7977 13.8563 26.6135 13.8563 29.5838 16.8266Z" stroke="#273246" stroke-width="2" stroke-linecap="square"/>
<path fill-rule="evenodd" clip-rule="evenodd" d="M13.4498 32.9613L11.533 34.8781C10.8375 35.58 10.8375 36.7113 11.533 37.4132L16.5971 42.4833C17.2988 43.1775 17.801 43.6004 17.801 43.6004L46.001 16.0004C46.001 16.0004 45.179 15.3033 44.4847 14.6017L39.4066 9.53157C38.7047 8.83602 37.5735 8.83602 36.8716 9.53157L34.9548 11.4484C29.0141 5.50994 19.3842 5.51173 13.4458 11.4524C7.50739 17.393 7.50918 27.0229 13.4498 32.9613Z" stroke="#273246" stroke-width="2" stroke-linecap="square"/>
</svg>
