<svg width="80" height="80" viewBox="0 0 80 80" fill="none" xmlns="http://www.w3.org/2000/svg">
<rect width="80" height="80" rx="40" fill="#1450B8"/>
<path d="M32.072 53.672L31.56 52.76C31.9867 52.568 32.4187 52.264 32.856 51.848C33.2933 51.432 33.6613 50.9787 33.96 50.488C34.2693 50.008 34.424 49.56 34.424 49.144C34.424 49.016 34.408 48.8933 34.376 48.776C34.344 48.648 34.296 48.536 34.232 48.44H35.112C34.9733 48.7813 34.7333 49.0427 34.392 49.224C34.0613 49.4053 33.6987 49.496 33.304 49.496C32.7387 49.496 32.2427 49.32 31.816 48.968C31.4 48.616 31.192 48.1093 31.192 47.448C31.192 46.808 31.416 46.2907 31.864 45.896C32.312 45.5013 32.8933 45.304 33.608 45.304C34.376 45.304 34.984 45.5493 35.432 46.04C35.88 46.52 36.104 47.176 36.104 48.008C36.104 48.8293 35.896 49.624 35.48 50.392C35.0747 51.16 34.5627 51.8267 33.944 52.392C33.3253 52.968 32.7013 53.3947 32.072 53.672ZM33.352 36.792C32.7547 36.792 32.248 36.5893 31.832 36.184C31.4267 35.7787 31.224 35.2773 31.224 34.68C31.224 34.0933 31.4267 33.5973 31.832 33.192C32.248 32.776 32.7547 32.568 33.352 32.568C33.928 32.568 34.424 32.776 34.84 33.192C35.256 33.5973 35.464 34.0933 35.464 34.68C35.464 35.2773 35.256 35.7787 34.84 36.184C34.424 36.5893 33.928 36.792 33.352 36.792ZM40.8252 56.472L38.9852 54.536C39.3372 54.248 39.8226 53.752 40.4412 53.048C41.0599 52.344 41.6892 51.3893 42.3292 50.184C42.9799 48.9893 43.5292 47.5227 43.9773 45.784C44.4253 44.0347 44.6493 41.9813 44.6493 39.624C44.6493 37.256 44.4253 35.1973 43.9773 33.448C43.5292 31.688 42.9799 30.2107 42.3292 29.016C41.6892 27.8107 41.0599 26.856 40.4412 26.152C39.8226 25.448 39.3372 24.9627 38.9852 24.696L40.8252 22.76C41.1026 22.952 41.5132 23.3093 42.0573 23.832C42.6013 24.3547 43.1933 25.064 43.8333 25.96C44.4733 26.8453 45.0866 27.9333 45.6733 29.224C46.2599 30.5147 46.7399 32.024 47.1132 33.752C47.4972 35.4693 47.6892 37.4267 47.6892 39.624C47.6892 41.8 47.4972 43.7467 47.1132 45.464C46.7399 47.1813 46.2599 48.68 45.6733 49.96C45.0866 51.2507 44.4733 52.3387 43.8333 53.224C43.1933 54.12 42.6013 54.8293 42.0573 55.352C41.5132 55.8853 41.1026 56.2587 40.8252 56.472Z" fill="white"/>
</svg>
